<svg xmlns="http://www.w3.org/2000/svg" viewBox="0 0 100 100" width="100" height="100">
  <!-- Red hexagon background -->
  <polygon points="50,8 88,25 88,65 50,92 12,65 12,25" fill="#dc143c" stroke="#dc143c" stroke-width="1.5"/>
  
  <!-- RD Letters - Stylized and intertwined -->
  <g fill="#ffffff" stroke="#ffffff" stroke-width="2" stroke-linejoin="round" stroke-linecap="round">
    <!-- R letter -->
    <path d="M 22 28 L 22 72 L 32 72 L 32 58 L 38 52 L 45 52 L 50 57 L 50 52 L 45 47 L 38 47 L 32 52 L 32 28 Z" fill="#ffffff"/>
    <path d="M 27 28 L 27 52 L 38 52 L 43 47 L 43 33 L 38 28 Z" fill="#dc143c"/>
    
    <!-- D letter - larger, wrapping around R -->
    <path d="M 52 28 L 52 72 L 68 72 L 73 67 L 73 33 L 68 28 Z" fill="#ffffff"/>
    <path d="M 57 33 L 57 67 L 68 67 L 70 65 L 70 35 L 68 33 Z" fill="#dc143c"/>
  </g>
</svg>
